<svg width="88" height="88" viewBox="0 0 88 88" fill="none" xmlns="http://www.w3.org/2000/svg">
  <rect x="0.5" y="0.5" width="87" height="87" rx="10" fill="#111113" stroke="#1E1E22" />
  <g stroke="#3B82F6" stroke-width="1.2" opacity="0.6">
    <line x1="26" y1="30" x2="44" y2="20" />
    <line x1="26" y1="30" x2="44" y2="44" />
    <line x1="26" y1="58" x2="44" y2="44" />
    <line x1="26" y1="58" x2="44" y2="68" />
    <line x1="44" y1="20" x2="62" y2="34" />
    <line x1="44" y1="44" x2="62" y2="34" />
    <line x1="44" y1="44" x2="62" y2="54" />
    <line x1="44" y1="68" x2="62" y2="54" />
  </g>
  <g fill="#3B82F6">
    <circle cx="26" cy="30" r="3" />
    <circle cx="26" cy="58" r="3" />
    <circle cx="44" cy="20" r="3" opacity="0.85" />
    <circle cx="44" cy="44" r="3.6" />
    <circle cx="44" cy="68" r="3" opacity="0.85" />
    <circle cx="62" cy="34" r="3" opacity="0.7" />
    <circle cx="62" cy="54" r="3" opacity="0.7" />
  </g>
</svg>
